<svg xmlns="http://www.w3.org/2000/svg" viewBox="0 0 800 600">
  <defs>
    <linearGradient id="bg" x1="0" x2="1" y1="0" y2="1">
      <stop offset="0%" stop-color="#110f14"/>
      <stop offset="100%" stop-color="#1b2438"/>
    </linearGradient>
    <linearGradient id="gold" x1="0" x2="1" y1="0" y2="1">
      <stop offset="0%" stop-color="#efcb83"/>
      <stop offset="100%" stop-color="#8f6330"/>
    </linearGradient>
    <radialGradient id="pearl" cx="40%" cy="35%" r="60%">
      <stop offset="0%" stop-color="#fff"/>
      <stop offset="65%" stop-color="#f4ead6"/>
      <stop offset="100%" stop-color="#b8a28b"/>
    </radialGradient>
  </defs>
  <rect width="800" height="600" fill="url(#bg)"/>
  <path d="M260 170c0-40 28-68 62-68s62 28 62 68-28 68-62 68-62-28-62-68Z" fill="none" stroke="url(#gold)" stroke-width="16"/>
  <path d="M476 170c0-40 28-68 62-68s62 28 62 68-28 68-62 68-62-28-62-68Z" fill="none" stroke="url(#gold)" stroke-width="16"/>
  <path d="M322 238 292 380" fill="none" stroke="url(#gold)" stroke-width="12" stroke-linecap="round"/>
  <path d="M538 238 508 380" fill="none" stroke="url(#gold)" stroke-width="12" stroke-linecap="round"/>
  <circle cx="292" cy="430" r="54" fill="url(#pearl)"/>
  <circle cx="508" cy="430" r="54" fill="url(#pearl)"/>
</svg>
