<svg xmlns="http://www.w3.org/2000/svg" viewBox="0 0 800 600">
  <defs>
    <linearGradient id="bg" x1="0" x2="1" y1="0" y2="1">
      <stop offset="0%" stop-color="#15100d"/>
      <stop offset="100%" stop-color="#2b1e12"/>
    </linearGradient>
    <linearGradient id="gold" x1="0" x2="1" y1="0" y2="1">
      <stop offset="0%" stop-color="#f3cf87"/>
      <stop offset="100%" stop-color="#8e5f28"/>
    </linearGradient>
  </defs>
  <rect width="800" height="600" fill="url(#bg)"/>
  <path d="M250 220c55-50 110-70 150-70s95 20 150 70v170c-55 50-110 70-150 70s-95-20-150-70V220Z" fill="none" stroke="url(#gold)" stroke-width="26" stroke-linejoin="round"/>
  <path d="M310 250c35-22 68-32 90-32s55 10 90 32v110c-35 22-68 32-90 32s-55-10-90-32V250Z" fill="none" stroke="#f7e2b8" stroke-width="10" opacity="0.75"/>
  <path d="M292 200h216" fill="none" stroke="url(#gold)" stroke-width="14" stroke-linecap="round"/>
</svg>
